<svg width="18" height="21" viewBox="0 0 18 21" fill="none" xmlns="http://www.w3.org/2000/svg">
<path d="M2.71875 8.05313V13.4906C2.71875 13.8656 2.59375 14.1781 2.34375 14.4281C2.09375 14.6781 1.78125 14.8031 1.40625 14.8031C1.03125 14.8031 0.703125 14.6781 0.421875 14.4281C0.140625 14.1781 0 13.8656 0 13.4906V8.05313C0 7.70938 0.140625 7.4125 0.421875 7.1625C0.703125 6.9125 1.01562 6.7875 1.35938 6.7875C1.73438 6.7875 2.04688 6.9125 2.29688 7.1625C2.57812 7.4125 2.71875 7.70938 2.71875 8.05313ZM3.1875 15.4125C3.1875 15.8188 3.32812 16.1625 3.60938 16.4438C3.89062 16.6938 4.21875 16.8188 4.59375 16.8188H5.53125V19.6781C5.53125 20.2406 5.75 20.6156 6.1875 20.8031C6.625 21.0219 7.04688 21.0219 7.45312 20.8031C7.89062 20.5844 8.10938 20.2094 8.10938 19.6781V16.8188H9.89062V19.6781C9.89062 20.2406 10.0938 20.6156 10.5 20.8031C10.9375 21.0219 11.375 21.0219 11.8125 20.8031C12.25 20.6156 12.4688 20.2406 12.4688 19.6781V16.8188H13.4062C13.7812 16.8188 14.1094 16.6938 14.3906 16.4438C14.6719 16.1625 14.8125 15.8188 14.8125 15.4125V7.02187H3.1875V15.4125ZM14.8125 6.55312H3.14062C3.14062 5.58437 3.40625 4.69375 3.9375 3.88125C4.5 3.0375 5.23438 2.38125 6.14062 1.9125L5.25 0.271875C5.1875 0.146875 5.20312 0.06875 5.29688 0.0375C5.42188 -0.025 5.5 -0.009375 5.53125 0.084375L6.46875 1.725C7.28125 1.38125 8.125 1.20938 9 1.20938C9.90625 1.20938 10.75 1.38125 11.5312 1.725L12.4688 0.084375C12.5 -0.009375 12.5625 -0.025 12.6562 0.0375C12.7812 0.06875 12.8125 0.146875 12.75 0.271875L11.8594 1.9125C12.7656 2.38125 13.4844 3.0375 14.0156 3.88125C14.5469 4.69375 14.8125 5.58437 14.8125 6.55312ZM6.84375 3.975C6.84375 3.85 6.79688 3.74062 6.70312 3.64687C6.60938 3.52187 6.48438 3.45937 6.32812 3.45937C6.20312 3.45937 6.09375 3.52187 6 3.64687C5.90625 3.74062 5.85938 3.85 5.85938 3.975C5.85938 4.1 5.90625 4.20937 6 4.30312C6.09375 4.39687 6.20312 4.44375 6.32812 4.44375C6.48438 4.44375 6.60938 4.39687 6.70312 4.30312C6.79688 4.20937 6.84375 4.1 6.84375 3.975ZM12.1406 3.975C12.1406 3.85 12.0938 3.74062 12 3.64687C11.9062 3.52187 11.7969 3.45937 11.6719 3.45937C11.5469 3.45937 11.4219 3.52187 11.2969 3.64687C11.2031 3.74062 11.1562 3.85 11.1562 3.975C11.1562 4.1 11.2031 4.20937 11.2969 4.30312C11.4219 4.39687 11.5469 4.44375 11.6719 4.44375C11.7969 4.44375 11.9062 4.39687 12 4.30312C12.0938 4.20937 12.1406 4.1 12.1406 3.975ZM16.5938 6.7875C16.25 6.7875 15.9375 6.9125 15.6562 7.1625C15.4062 7.4125 15.2812 7.725 15.2812 8.1V13.4906C15.2812 13.8656 15.4062 14.1781 15.6562 14.4281C15.9375 14.6781 16.25 14.8031 16.5938 14.8031C16.9688 14.8031 17.2969 14.6781 17.5781 14.4281C17.8594 14.1781 18 13.8656 18 13.4906V8.05313C18 7.70938 17.8594 7.4125 17.5781 7.1625C17.2969 6.9125 16.9688 6.7875 16.5938 6.7875Z" fill="white"/>
</svg>
