<svg width="18" height="22" viewBox="0 0 18 22" fill="none" xmlns="http://www.w3.org/2000/svg">
<path d="M14.7656 11.1094C14.7344 9.39062 15.5156 8.0625 17.1094 7.125C16.2344 5.875 14.9062 5.17188 13.125 5.01562C12.6562 4.98438 12.125 5.04688 11.5312 5.20312C11.1875 5.29688 10.7188 5.45312 10.125 5.67188C9.53125 5.89062 9.14062 6 8.95312 6C8.76562 6 8.34375 5.875 7.6875 5.625C6.65625 5.25 5.89062 5.0625 5.39062 5.0625C4.48438 5.09375 3.60938 5.34375 2.76562 5.8125C1.95312 6.28125 1.29688 6.96875 0.796875 7.875C0.265625 8.84375 0 10 0 11.3438C0 12.5625 0.21875 13.8281 0.65625 15.1406C0.90625 15.8281 1.26562 16.5938 1.73438 17.4375C2.32812 18.4688 2.92188 19.2812 3.51562 19.875C4.29688 20.6562 5.03125 21.0312 5.71875 21C6.0625 21 6.5625 20.875 7.21875 20.625C8.03125 20.3125 8.70312 20.1562 9.23438 20.1562C9.76562 20.1562 10.4062 20.2969 11.1562 20.5781C11.8438 20.8594 12.4062 21 12.8438 21C13.8438 20.9688 14.8594 20.25 15.8906 18.8438C16.6719 17.75 17.25 16.6094 17.625 15.4219C16.375 14.8281 15.5312 13.9531 15.0938 12.7969C14.8438 12.2344 14.7344 11.6719 14.7656 11.1094ZM12.0938 3.375C12.9375 2.375 13.3125 1.25 13.2188 0C12.6562 0.03125 12.0781 0.203125 11.4844 0.515625C10.8906 0.828125 10.4062 1.20312 10.0312 1.64062C9.125 2.64062 8.73438 3.76562 8.85938 5.01562C10.0156 5.10938 11.0938 4.57812 12.0938 3.42188V3.375Z" fill="white"/>
</svg>
